PathFileType	4	(X/Y/Z)	Run_200 02
DataRate	CameraRate	NumFrames	NumMarkers	Units	OrigDataRate	OrigDataStartFrame	OrigNumFrames
100	100	4	45	mm	100	168	137
Frame#	Time	RASI			LPSI			RTH1			RTH2			RTH3			LTH1			LTH2			LTH3			RTB1			RTB2			RTB3			RLMAL			RMMAL			LTB1			LTB2			LTB3			RCAL			RTOE			RMT5			LCAL			LTOE			LMT5			LACR			RACR			CLAV			C7			LPSH			RUA1			RUA2			RUA3			RLEL			RMEL			LUA1			LUA2			LUA3			LLEL			LMEL			RFAsuperior			RFAradius			LFAsuperior			LFAradius			LFAulna			LASI			RFAulna			RPSI			
		X1	Y1	Z1	X2	Y2	Z2	X3	Y3	Z3	X4	Y4	Z4	X5	Y5	Z5	X6	Y6	Z6	X7	Y7	Z7	X8	Y8	Z8	X9	Y9	Z9	X10	Y10	Z10	X11	Y11	Z11	X12	Y12	Z12	X13	Y13	Z13	X14	Y14	Z14	X15	Y15	Z15	X16	Y16	Z16	X17	Y17	Z17	X18	Y18	Z18	X19	Y19	Z19	X20	Y20	Z20	X21	Y21	Z21	X22	Y22	Z22	X23	Y23	Z23	X24	Y24	Z24	X25	Y25	Z25	X26	Y26	Z26	X27	Y27	Z27	X28	Y28	Z28	X29	Y29	Z29	X30	Y30	Z30	X31	Y31	Z31	X32	Y32	Z32	X33	Y33	Z33	X34	Y34	Z34	X35	Y35	Z35	X36	Y36	Z36	X37	Y37	Z37	X38	Y38	Z38	X39	Y39	Z39	X40	Y40	Z40	X41	Y41	Z41	X42	Y42	Z42	X43	Y43	Z43	X44	Y44	Z44	X45	Y45	Z45	

165	1.84	1049.804491	1049.214214	-335.752115	874.257888	1070.175491	-500.917854	987.2313799999999	785.222521	-294.591679	1065.974687	723.036624	-329.557918	1007.246837	615.824983	-329.9606	989.093664	816.403641	-621.278581	1094.269501	732.291982	-620.853099	1070.483438	626.011604	-610.620492	1016.146581	368.87809	-389.286891	962.619815	328.961789	-340.786345	926.8383710000001	207.464698	-383.740228	844.290872	122.897227	-358.217133	863.764861	135.123403	-441.75496	1063.996293	415.70174	-594.808868	929.741493	409.508116	-616.722274	912.7367850000001	297.858422	-590.926835	772.8035609999999	100.11571	-416.476875	998.120359	67.51837500000001	-397.664678	926.807422	57.521393	-322.13161	732.266764	255.974109	-548.750346	894.968239	106.327806	-583.269571	835.98326	132.766041	-648.794859	988.408125	1539.820948	-636.938924	1002.448212	1519.334154	-317.910715	1071.701374	1468.310814	-456.237357	954.046656	1559.429227	-473.847228	906.877692	1499.520549	-644.017505	982.141454	1359.215024	-231.751357	908.784001	1297.159077	-234.602132	932.174746	1241.826875	-197.530042	957.433891	1176.958187	-180.341441	913.97747	1164.145843	-255.876625	905.069856	1413.141936	-704.436581	842.839038	1334.980584	-688.594856	858.699567	1292.857544	-749.209286	863.197232	1217.436699	-772.706941	831.885573	1204.074172	-689.311183	1006.809326	1119.95357	-211.247713	1174.230924	1136.1684	-316.872628	934.956949	1169.789393	-727.91859	1078.791561	1239.394176	-648.510145	1086.041573	1172.497673	-666.415667	1044.616245	1039.902811	-571.912921	1165.644372	1069.122341	-305.809414	879.455073	1071.014442	-415.129267	
166	1.85	1050.150374	1052.265712	-334.832555	873.441325	1075.508415	-499.253629	980.967721	788.157458	-293.923792	1057.200746	723.57227	-329.352843	995.010313	618.2289060000001	-328.783561	991.530812	821.811114	-622.0429339999999	1097.290146	739.270248	-621.506411	1075.43065	632.915836	-612.632268	998.7073820000001	370.149921	-386.896562	944.672116	330.808436	-339.482963	908.425587	209.591079	-382.6681	825.10441	125.437019	-357.397539	845.243026	137.726437	-440.778304	1075.625683	419.634269	-594.750898	942.147352	405.664334	-618.256247	930.878772	293.741492	-590.603255	753.239455	102.085576	-416.372814	978.346583	67.673154	-397.522477	906.930701	57.927205	-321.628633	752.305824	241.709351	-549.279802	924.629162	102.686653	-581.767479	864.573573	124.719241	-648.187198	983.652832	1544.596839	-637.200488	1003.191426	1525.733619	-319.179216	1071.209076	1473.744074	-458.001815	952.972024	1563.744703	-474.431302	902.009042	1504.468726	-642.333755	987.110158	1366.09929	-232.012571	915.815908	1302.667188	-230.971672	941.613257	1247.408163	-195.990607	967.988662	1183.358341	-180.545223	921.83447	1169.977473	-254.463791	897.408828	1419.636601	-702.371881	834.745777	1343.23662	-684.459959	847.924159	1300.473627	-745.207121	850.017236	1224.773235	-768.595025	820.432053	1212.797964	-683.011024	1018.508568	1129.714259	-214.425216	1179.257237	1156.91956	-328.065568	923.43312	1179.55778	-724.430575	1068.362697	1254.032576	-652.077759	1075.665437	1186.524061	-666.037927	1045.174682	1044.184658	-570.660243	1175.228538	1089.448923	-316.609388	879.433889	1076.149677	-413.272514	
167	1.86	1050.686769	1055.635929	-334.417242	873.767895	1081.288879	-498.328083	974.767533	791.649574	-293.290172	1048.492427	724.869448	-329.437764	982.5643659999999	621.567355	-327.770352	993.783502	827.63742	-622.915812	1099.927399	746.304331	-622.210736	1079.660928	639.8485930000001	-614.4305859999999	981.356164	372.479912	-384.407821	926.814253	333.537205	-337.993913	890.282357	212.540251	-381.288327	806.37605	128.624409	-356.493111	826.9131609999999	140.740434	-439.674724	1086.535851	423.647326	-594.676197	954.549436	401.270172	-619.877672	949.398277	289.367736	-590.4524269999999	734.400897	105.981246	-415.77711	958.6781109999999	67.918705	-397.242195	887.310341	58.37289	-321.380917	773.603311	226.629464	-550.174479	955.374449	99.35275300000001	-580.905512	894.341031	116.78705	-647.795581	979.159284	1549.709947	-637.342886	1004.044509	1532.504285	-320.676461	1070.833201	1479.488136	-459.83057	952.0343339999999	1568.375835	-475.056002	897.459095	1509.780969	-640.5726519999999	992.0962060000001	1373.565686	-232.483993	922.853198	1309.118642	-227.912374	950.896179	1254.031539	-194.567162	978.164055	1190.579004	-180.759835	929.430758	1176.637018	-253.052344	890.124636	1426.622538	-700.170859	827.32349	1351.935899	-679.694064	837.3652489999999	1308.515852	-740.556227	837.255389	1232.330332	-763.7201679999999	810.069217	1221.784832	-676.1375	1029.418903	1140.391426	-217.605478	1182.441597	1178.189653	-338.837554	912.562471	1189.64034	-720.217717	1058.183574	1269.249794	-655.207942	1066.117518	1201.363944	-665.6523570000001	1045.897257	1048.769175	-569.720625	1183.041043	1110.60064	-327.098942	880.225106	1081.827692	-412.21748	
168	1.87	1051.427628	1059.298632	-334.673442	875.15648	1087.290888	-498.218603	968.434068	795.802635	-292.883368	1039.923316	726.933172	-329.504534	970.135796	625.803745	-326.725096	995.472766	833.7802830000001	-623.726682	1102.255843	753.373297	-622.862561	1083.138193	646.68952	-615.8452610000001	964.4410370000001	375.863541	-381.925607	909.258095	337.23402	-336.229677	872.519976	216.430894	-379.66419	788.341171	132.584174	-355.502074	808.915092	144.320335	-438.576456	1096.578433	427.67302	-594.682421	966.827593	396.477398	-621.385839	968.202595	284.884476	-590.547404	716.541892	112.013846	-414.796546	939.001169	68.23417499999999	-396.692386	867.978239	58.877285	-321.346769	796.2039559999999	210.892842	-551.226376	986.9764259999999	96.515236	-580.477264	925.109006	109.206198	-647.5565	975.1081809999999	1554.955044	-637.5457290000001	1005.049792	1539.500483	-322.323111	1070.599237	1485.40338	-461.671035	951.217887	1573.225183	-475.732597	893.399954	1515.213584	-638.786346	997.151508	1381.37471	-233.250694	929.6440669999999	1316.216224	-225.673694	959.712973	1261.453626	-193.400519	987.9144680000001	1198.432793	-180.965104	936.588496	1183.807853	-251.528847	883.2884790000001	1433.779877	-697.736295	820.722964	1360.620103	-674.2291300000001	827.039591	1316.758321	-735.156298	825.005377	1239.939968	-758.198139	801.2746509999999	1230.679317	-669.154909	1039.504223	1151.705004	-220.779275	1183.969373	1199.488117	-348.952097	902.409119	1199.775402	-715.6206120000001	1048.34206	1284.457974	-658.084345	1057.309043	1216.426125	-665.479148	1046.725099	1053.593911	-569.165208	1189.15199	1132.143069	-336.91241	881.7143150000001	1087.614585	-412.117999	
